<svg width="29" height="18" viewBox="0 0 29 18" fill="none" xmlns="http://www.w3.org/2000/svg">
<path d="M27.7971 4.48514L16.0392 16.8022C15.7836 17.07 15.5067 17.2592 15.2085 17.3699C14.9103 17.4823 14.5908 17.5386 14.25 17.5386C13.9092 17.5386 13.5897 17.4823 13.2915 17.3699C12.9933 17.2592 12.7164 17.07 12.4608 16.8022L0.702913 4.48514C0.234303 3.99424 -6.19352e-07 3.36946 -6.52514e-07 2.6108C-6.85676e-07 1.85214 0.234303 1.22736 0.702913 0.736462C1.17152 0.245563 1.76794 0.000112456 2.49215 0.000112425C3.21637 0.000112393 3.81278 0.245563 4.28139 0.736461L14.25 11.1792L24.2186 0.736461C24.6872 0.245562 25.2836 0.000111428 26.0078 0.000111397C26.7321 0.000111365 27.3285 0.245562 27.7971 0.73646C28.2657 1.22736 28.5 1.85214 28.5 2.6108C28.5 3.36946 28.2657 3.99424 27.7971 4.48514Z" fill="#99CFD0"/>
</svg>
